<svg xmlns="http://www.w3.org/2000/svg" xmlns:xlink="http://www.w3.org/1999/xlink" width="27" zoomAndPan="magnify" viewBox="0 0 20.25 18.75" height="25" preserveAspectRatio="xMidYMid meet" version="1.0"><defs><clipPath id="674e9c08da"><path d="M 0.902344 0.214844 L 18.320312 0.214844 L 18.320312 17.628906 L 0.902344 17.628906 Z M 0.902344 0.214844 " clip-rule="nonzero"/></clipPath><clipPath id="406e2382b0"><path d="M 3.796875 0.214844 L 15.425781 0.214844 C 17.023438 0.214844 18.320312 1.507812 18.320312 3.105469 L 18.320312 14.738281 C 18.320312 16.335938 17.023438 17.628906 15.425781 17.628906 L 3.796875 17.628906 C 2.199219 17.628906 0.902344 16.335938 0.902344 14.738281 L 0.902344 3.105469 C 0.902344 1.507812 2.199219 0.214844 3.796875 0.214844 Z M 3.796875 0.214844 " clip-rule="nonzero"/></clipPath><clipPath id="fc7a34bac7"><path d="M 1 0.214844 L 18 0.214844 L 18 15 L 1 15 Z M 1 0.214844 " clip-rule="nonzero"/></clipPath><clipPath id="b62110f331"><path d="M 0 7.148438 L 14.300781 0.171875 L 19.375 10.570312 L 5.074219 17.546875 Z M 0 7.148438 " clip-rule="nonzero"/></clipPath><clipPath id="2680d1a2e0"><path d="M 0 7.148438 L 14.300781 0.171875 L 19.375 10.570312 L 5.074219 17.546875 Z M 0 7.148438 " clip-rule="nonzero"/></clipPath></defs><g clip-path="url(#674e9c08da)"><g clip-path="url(#406e2382b0)"><path fill="#359279" d="M 0.902344 0.214844 L 18.320312 0.214844 L 18.320312 17.628906 L 0.902344 17.628906 Z M 0.902344 0.214844 " fill-opacity="1" fill-rule="nonzero"/></g></g><g clip-path="url(#fc7a34bac7)"><g clip-path="url(#b62110f331)"><g clip-path="url(#2680d1a2e0)"><path fill="#ffffff" d="M 2.710938 9.632812 C 2.621094 9.59375 2.527344 9.558594 2.433594 9.523438 L 2.320312 9.480469 L 2.3125 9.476562 L 2.300781 9.472656 L 2.269531 9.460938 L 2.230469 9.445312 L 2.203125 9.4375 L 2.191406 9.433594 C 1.398438 9.148438 1.121094 9.160156 1.199219 9.308594 C 1.097656 9.398438 1.359375 9.625 2.203125 9.9375 L 2.246094 9.957031 C 2.339844 9.996094 2.660156 10.128906 2.792969 10.179688 L 2.976562 10.246094 C 3.414062 10.4375 3.851562 10.65625 4.273438 10.902344 C 4.929688 11.277344 5.550781 11.707031 6.101562 12.167969 L 8.308594 14.042969 C 8.375 14.101562 8.476562 14.097656 8.535156 14.03125 C 8.59375 13.96875 8.589844 13.867188 8.523438 13.808594 L 6.347656 11.878906 C 5.984375 11.5625 5.589844 11.261719 5.175781 10.976562 C 5.355469 11.023438 5.539062 11.066406 5.71875 11.097656 C 6.210938 11.1875 6.699219 11.210938 7.15625 11.117188 C 7.476562 11.050781 7.710938 10.902344 7.875 10.695312 C 8.035156 10.496094 8.125 10.230469 8.132812 9.910156 C 8.132812 9.824219 8.089844 9.679688 8.042969 9.542969 C 8.164062 9.617188 8.28125 9.714844 8.40625 9.792969 C 8.679688 9.96875 8.953125 10.089844 9.203125 10.070312 C 9.464844 10.046875 9.738281 9.894531 9.953125 9.429688 C 10.214844 8.859375 10.222656 8.136719 10.097656 7.386719 C 10.039062 7.019531 9.949219 6.648438 9.847656 6.285156 C 9.972656 6.515625 10.105469 6.742188 10.25 6.960938 C 10.4375 7.25 10.640625 7.523438 10.875 7.773438 C 11.027344 7.9375 11.316406 8.191406 11.601562 8.300781 C 11.796875 8.375 11.996094 8.382812 12.171875 8.320312 C 12.480469 8.210938 12.675781 8.003906 12.800781 7.746094 C 12.910156 7.523438 12.949219 7.25 12.972656 6.980469 C 13.113281 7.070312 13.253906 7.136719 13.398438 7.148438 C 13.550781 7.160156 13.710938 7.125 13.878906 7.011719 C 14.214844 6.773438 14.4375 6.421875 14.578125 6.011719 C 14.753906 5.5 14.792969 4.898438 14.816406 4.4375 C 14.816406 4.363281 14.820312 4.285156 14.820312 4.207031 C 14.9375 4.535156 15.054688 4.863281 15.175781 5.191406 C 15.445312 5.917969 15.734375 6.636719 16.042969 7.347656 C 16.09375 7.46875 16.402344 8.117188 16.582031 8.546875 C 16.460938 8.550781 16.332031 8.554688 16.28125 8.5625 C 16.027344 8.585938 15.777344 8.625 15.53125 8.679688 C 15.167969 8.753906 14.808594 8.851562 14.453125 8.949219 C 13.347656 9.261719 12.003906 9.757812 10.871094 10.480469 C 10.085938 10.980469 9.402344 11.589844 8.964844 12.316406 C 8.390625 13.269531 8.542969 13.957031 9.015625 14.3125 C 9.4375 14.625 10.175781 14.691406 11.003906 14.386719 C 11.746094 14.117188 12.460938 13.710938 13.148438 13.226562 C 14.140625 12.523438 15.0625 11.664062 15.878906 10.875 C 15.945312 10.808594 15.949219 10.703125 15.886719 10.632812 C 15.820312 10.566406 15.710938 10.5625 15.644531 10.628906 C 14.828125 11.390625 13.902344 12.214844 12.910156 12.886719 C 12.25 13.332031 11.5625 13.714844 10.851562 13.957031 C 10.207031 14.179688 9.632812 14.167969 9.3125 13.921875 C 9.003906 13.679688 9.015625 13.222656 9.410156 12.59375 C 9.820312 11.941406 10.453125 11.40625 11.175781 10.960938 C 12.265625 10.292969 13.558594 9.839844 14.621094 9.5625 C 14.964844 9.46875 15.308594 9.382812 15.65625 9.316406 C 15.882812 9.269531 16.113281 9.238281 16.339844 9.21875 C 16.453125 9.207031 16.753906 9.226562 16.945312 9.195312 C 17.082031 9.171875 17.1875 9.117188 17.246094 9.0625 C 17.296875 9.015625 17.355469 8.933594 17.359375 8.796875 C 17.355469 8.753906 17.339844 8.660156 17.300781 8.539062 C 17.167969 8.148438 16.738281 7.222656 16.679688 7.078125 C 16.386719 6.375 16.113281 5.660156 15.855469 4.941406 C 15.59375 4.222656 15.351562 3.5 15.125 2.773438 C 15.058594 2.554688 14.9375 1.847656 14.78125 1.4375 C 14.683594 1.1875 14.546875 1.027344 14.433594 0.960938 C 14.304688 0.890625 14.203125 0.902344 14.132812 0.921875 C 14.03125 0.945312 13.953125 1 13.894531 1.089844 C 13.859375 1.144531 13.824219 1.230469 13.828125 1.347656 C 13.832031 1.421875 13.886719 1.578125 13.890625 1.65625 L 13.949219 2.34375 C 13.980469 2.761719 14.019531 3.175781 14.039062 3.59375 C 14.050781 3.859375 14.050781 4.128906 14.039062 4.398438 C 14.019531 4.796875 13.988281 5.316406 13.835938 5.757812 C 13.753906 5.996094 13.640625 6.214844 13.445312 6.359375 C 13.398438 6.324219 13.25 6.226562 13.167969 6.167969 C 13.097656 6.117188 12.992188 5.972656 12.925781 5.925781 C 12.824219 5.851562 12.722656 5.835938 12.652344 5.835938 C 12.492188 5.84375 12.300781 5.902344 12.257812 6.203125 C 12.214844 6.5 12.253906 6.9375 12.152344 7.292969 C 12.113281 7.421875 12.054688 7.542969 11.914062 7.59375 C 11.886719 7.601562 11.867188 7.578125 11.839844 7.5625 C 11.785156 7.539062 11.734375 7.507812 11.6875 7.476562 C 11.582031 7.402344 11.492188 7.3125 11.429688 7.25 C 11.15625 6.960938 10.925781 6.632812 10.714844 6.289062 C 10.378906 5.738281 10.09375 5.152344 9.773438 4.621094 L 9.140625 3.601562 C 9.054688 3.472656 8.886719 3.148438 8.820312 3.097656 C 8.683594 2.988281 8.550781 3 8.453125 3.039062 C 8.378906 3.066406 8.222656 3.140625 8.210938 3.390625 C 8.207031 3.542969 8.242188 3.730469 8.304688 3.925781 C 8.410156 4.242188 8.589844 4.59375 8.660156 4.828125 C 8.875 5.523438 9.273438 6.53125 9.445312 7.5 C 9.554688 8.109375 9.582031 8.699219 9.371094 9.167969 C 9.269531 9.398438 9.175781 9.476562 9.042969 9.429688 C 8.824219 9.363281 8.601562 9.179688 8.375 9.046875 C 8.140625 8.90625 7.90625 8.8125 7.6875 8.820312 C 7.511719 8.828125 7.417969 8.90625 7.363281 9 C 7.316406 9.070312 7.292969 9.167969 7.316406 9.292969 C 7.332031 9.394531 7.402344 9.542969 7.46875 9.691406 C 7.503906 9.769531 7.550781 9.84375 7.550781 9.902344 C 7.546875 10.082031 7.511719 10.230469 7.425781 10.347656 C 7.339844 10.457031 7.207031 10.53125 7.039062 10.570312 C 6.648438 10.65625 6.230469 10.640625 5.8125 10.570312 C 5.152344 10.464844 4.488281 10.234375 3.910156 10.054688 L 2.960938 9.726562 C 2.902344 9.707031 2.808594 9.671875 2.710938 9.632812 Z M 2.710938 9.632812 " fill-opacity="1" fill-rule="evenodd"/></g></g></g></svg>