<svg xmlns="http://www.w3.org/2000/svg" xmlns:xlink="http://www.w3.org/1999/xlink" width="154" zoomAndPan="magnify" viewBox="0 0 115.5 44.249999" height="59" preserveAspectRatio="xMidYMid meet" version="1.0"><defs><g/><clipPath id="c35092751d"><path d="M 3 1 L 34 1 L 34 28 L 3 28 Z M 3 1 " clip-rule="nonzero"/></clipPath><clipPath id="7b9262abcb"><path d="M 0.71875 15.476562 L 27.519531 -0.578125 L 38.222656 17.292969 L 11.421875 33.347656 Z M 0.71875 15.476562 " clip-rule="nonzero"/></clipPath><clipPath id="fe098d6780"><path d="M 0.71875 15.476562 L 27.519531 -0.578125 L 38.222656 17.292969 L 11.421875 33.347656 Z M 0.71875 15.476562 " clip-rule="nonzero"/></clipPath><clipPath id="5d720f99ea"><path d="M 3 1 L 34 1 L 34 28 L 3 28 Z M 3 1 " clip-rule="nonzero"/></clipPath><clipPath id="4ff8aaa12d"><path d="M 0.722656 15.476562 L 27.527344 -0.578125 L 35.554688 12.824219 L 8.75 28.878906 Z M 0.722656 15.476562 " clip-rule="nonzero"/></clipPath><clipPath id="d7569be062"><path d="M 0.722656 15.476562 L 27.527344 -0.578125 L 38.230469 17.289062 L 11.425781 33.34375 Z M 0.722656 15.476562 " clip-rule="nonzero"/></clipPath></defs><g clip-path="url(#c35092751d)"><g clip-path="url(#7b9262abcb)"><g clip-path="url(#fe098d6780)"><path fill="#359279" d="M 6.273438 19.757812 C 6.089844 19.699219 5.90625 19.644531 5.722656 19.59375 L 5.5 19.53125 L 5.492188 19.527344 L 5.46875 19.523438 L 5.402344 19.503906 L 5.324219 19.480469 L 5.273438 19.46875 L 5.253906 19.464844 C 3.703125 19.054688 3.175781 19.121094 3.351562 19.386719 C 3.171875 19.574219 3.699219 19.960938 5.359375 20.417969 L 5.441406 20.445312 C 5.621094 20.507812 6.253906 20.703125 6.515625 20.777344 L 6.871094 20.875 C 7.734375 21.167969 8.601562 21.515625 9.445312 21.910156 C 10.742188 22.515625 11.992188 23.230469 13.113281 24.011719 L 17.609375 27.210938 C 17.742188 27.3125 17.933594 27.285156 18.035156 27.152344 C 18.136719 27.019531 18.113281 26.828125 17.976562 26.726562 L 13.53125 23.425781 C 12.792969 22.886719 11.992188 22.375 11.160156 21.902344 C 11.511719 21.964844 11.867188 22.015625 12.21875 22.046875 C 13.160156 22.132812 14.09375 22.097656 14.945312 21.847656 C 15.539062 21.671875 15.964844 21.351562 16.242188 20.929688 C 16.511719 20.519531 16.636719 20.007812 16.597656 19.398438 C 16.585938 19.234375 16.484375 18.96875 16.367188 18.714844 C 16.609375 18.835938 16.851562 19.003906 17.101562 19.132812 C 17.644531 19.421875 18.1875 19.605469 18.660156 19.523438 C 19.152344 19.4375 19.640625 19.105469 19.972656 18.1875 C 20.378906 17.066406 20.273438 15.691406 19.917969 14.289062 C 19.746094 13.601562 19.511719 12.910156 19.261719 12.242188 C 19.539062 12.65625 19.828125 13.066406 20.132812 13.457031 C 20.535156 13.972656 20.972656 14.460938 21.449219 14.894531 C 21.769531 15.183594 22.363281 15.617188 22.917969 15.773438 C 23.304688 15.882812 23.679688 15.867188 24 15.722656 C 24.570312 15.464844 24.910156 15.042969 25.105469 14.53125 C 25.273438 14.089844 25.308594 13.5625 25.304688 13.050781 C 25.582031 13.191406 25.863281 13.300781 26.136719 13.296875 C 26.429688 13.296875 26.730469 13.207031 27.03125 12.957031 C 27.628906 12.457031 27.996094 11.746094 28.191406 10.949219 C 28.441406 9.945312 28.417969 8.804688 28.382812 7.925781 C 28.378906 7.777344 28.371094 7.632812 28.359375 7.488281 C 28.632812 8.09375 28.910156 8.695312 29.191406 9.292969 C 29.824219 10.628906 30.492188 11.949219 31.1875 13.246094 C 31.304688 13.460938 32 14.644531 32.40625 15.429688 C 32.175781 15.457031 31.933594 15.488281 31.839844 15.507812 C 31.363281 15.597656 30.898438 15.714844 30.433594 15.851562 C 29.757812 16.054688 29.09375 16.296875 28.4375 16.546875 C 26.390625 17.3125 23.917969 18.476562 21.890625 20.027344 C 20.480469 21.109375 19.285156 22.378906 18.570312 23.828125 C 17.632812 25.730469 18.039062 27.011719 18.996094 27.601562 C 19.84375 28.128906 21.253906 28.132812 22.78125 27.421875 C 24.140625 26.792969 25.433594 25.898438 26.652344 24.867188 C 28.425781 23.371094 30.035156 21.59375 31.453125 19.960938 C 31.570312 19.828125 31.558594 19.621094 31.425781 19.503906 C 31.292969 19.386719 31.085938 19.398438 30.96875 19.53125 C 29.539062 21.109375 27.921875 22.824219 26.152344 24.261719 C 24.972656 25.21875 23.726562 26.050781 22.421875 26.628906 C 21.230469 27.15625 20.144531 27.234375 19.496094 26.8125 C 18.863281 26.40625 18.816406 25.535156 19.464844 24.277344 C 20.132812 22.972656 21.25 21.855469 22.542969 20.898438 C 24.503906 19.445312 26.882812 18.378906 28.851562 17.675781 C 29.488281 17.449219 30.128906 17.222656 30.78125 17.039062 C 31.203125 16.917969 31.628906 16.816406 32.058594 16.742188 C 32.269531 16.707031 32.84375 16.695312 33.199219 16.601562 C 33.457031 16.535156 33.648438 16.414062 33.753906 16.296875 C 33.839844 16.203125 33.941406 16.042969 33.917969 15.78125 C 33.914062 15.699219 33.867188 15.523438 33.769531 15.300781 C 33.453125 14.582031 32.492188 12.898438 32.351562 12.628906 C 31.683594 11.34375 31.046875 10.035156 30.4375 8.714844 C 29.828125 7.390625 29.25 6.054688 28.703125 4.714844 C 28.539062 4.308594 28.195312 2.988281 27.828125 2.238281 C 27.605469 1.78125 27.316406 1.496094 27.089844 1.394531 C 26.839844 1.28125 26.644531 1.316406 26.511719 1.363281 C 26.328125 1.425781 26.1875 1.546875 26.089844 1.726562 C 26.03125 1.832031 25.980469 2.003906 26.007812 2.222656 C 26.027344 2.363281 26.15625 2.652344 26.179688 2.800781 L 26.398438 4.089844 C 26.53125 4.878906 26.671875 5.660156 26.773438 6.445312 C 26.835938 6.953125 26.886719 7.464844 26.90625 7.980469 C 26.929688 8.738281 26.960938 9.722656 26.746094 10.589844 C 26.628906 11.058594 26.445312 11.492188 26.101562 11.792969 C 26.003906 11.738281 25.707031 11.574219 25.542969 11.476562 C 25.402344 11.394531 25.175781 11.132812 25.042969 11.054688 C 24.835938 10.933594 24.648438 10.917969 24.511719 10.933594 C 24.203125 10.96875 23.851562 11.113281 23.820312 11.691406 C 23.789062 12.261719 23.929688 13.089844 23.796875 13.773438 C 23.746094 14.027344 23.652344 14.265625 23.394531 14.386719 C 23.347656 14.40625 23.300781 14.359375 23.25 14.339844 C 23.144531 14.304688 23.042969 14.253906 22.945312 14.195312 C 22.738281 14.074219 22.546875 13.921875 22.421875 13.8125 C 21.855469 13.308594 21.367188 12.722656 20.910156 12.101562 C 20.183594 11.117188 19.539062 10.050781 18.847656 9.09375 L 17.480469 7.261719 C 17.300781 7.035156 16.925781 6.445312 16.792969 6.359375 C 16.511719 6.175781 16.261719 6.21875 16.085938 6.308594 C 15.949219 6.375 15.664062 6.539062 15.6875 7.015625 C 15.703125 7.308594 15.796875 7.65625 15.953125 8.015625 C 16.199219 8.597656 16.601562 9.238281 16.773438 9.667969 C 17.292969 10.953125 18.210938 12.800781 18.695312 14.605469 C 19.003906 15.746094 19.148438 16.863281 18.832031 17.785156 C 18.675781 18.238281 18.511719 18.402344 18.246094 18.339844 C 17.828125 18.246094 17.367188 17.9375 16.914062 17.71875 C 16.449219 17.496094 15.988281 17.355469 15.574219 17.402344 C 15.246094 17.441406 15.078125 17.609375 14.988281 17.792969 C 14.917969 17.9375 14.882812 18.128906 14.949219 18.359375 C 15 18.550781 15.152344 18.820312 15.304688 19.089844 C 15.382812 19.230469 15.480469 19.367188 15.492188 19.480469 C 15.519531 19.816406 15.476562 20.109375 15.328125 20.339844 C 15.183594 20.566406 14.949219 20.726562 14.632812 20.828125 C 13.90625 21.058594 13.113281 21.09375 12.304688 21.03125 C 11.03125 20.9375 9.734375 20.609375 8.609375 20.363281 L 6.757812 19.894531 C 6.644531 19.867188 6.457031 19.8125 6.273438 19.757812 Z M 6.273438 19.757812 " fill-opacity="1" fill-rule="evenodd"/></g></g></g><g fill="#ffffff" fill-opacity="1"><g transform="translate(22.355449, 33.293422)"><g><path d="M 12.25 -2.875 L 9.375 -2.875 L 9.375 -14.40625 L 6.484375 -14.40625 L 6.484375 -2.875 L 3.609375 -2.875 L 3.609375 -14.40625 L 0.71875 -14.40625 L 0.71875 -2.875 C 0.71875 -1.296875 2.015625 0 3.609375 0 L 12.25 0 C 13.84375 0 15.140625 -1.296875 15.140625 -2.875 L 15.140625 -14.40625 L 12.25 -14.40625 Z M 12.25 -2.875 "/></g></g></g><g fill="#ffffff" fill-opacity="1"><g transform="translate(38.203686, 33.293422)"><g><path d="M 15.140625 -14.40625 L 3.609375 -14.40625 C 2.015625 -14.40625 0.71875 -13.109375 0.71875 -11.53125 L 0.71875 -2.875 C 0.71875 -1.296875 2.015625 0 3.609375 0 L 15.140625 0 L 15.140625 -2.875 L 3.609375 -2.875 L 3.609375 -5.765625 L 15.140625 -5.765625 L 15.140625 -8.640625 L 3.609375 -8.640625 L 3.609375 -11.53125 L 15.140625 -11.53125 Z M 15.140625 -14.40625 "/></g></g></g><g fill="#ffffff" fill-opacity="1"><g transform="translate(54.051923, 33.293422)"><g><path d="M 15.140625 -11.53125 C 15.140625 -13.09375 13.859375 -14.40625 12.25 -14.40625 L 0.71875 -14.40625 L 0.71875 0 L 12.25 0 C 13.859375 0 15.140625 -1.3125 15.140625 -2.875 L 15.140625 -5.765625 C 15.140625 -6.5625 14.484375 -7.203125 13.6875 -7.203125 C 14.484375 -7.203125 15.140625 -7.859375 15.140625 -8.640625 Z M 12.25 -11.53125 L 12.25 -8.640625 L 3.609375 -8.640625 L 3.609375 -11.53125 Z M 3.609375 -2.875 L 3.609375 -5.765625 L 12.25 -5.765625 L 12.25 -2.875 Z M 3.609375 -2.875 "/></g></g></g><g fill="#ffffff" fill-opacity="1"><g transform="translate(69.90016, 33.293422)"><g><path d="M 15.140625 -14.40625 L 3.609375 -14.40625 C 2.015625 -14.40625 0.71875 -13.109375 0.71875 -11.53125 L 0.71875 -8.640625 C 0.71875 -7.0625 2.015625 -5.765625 3.609375 -5.765625 L 12.25 -5.765625 L 12.25 -2.875 L 0.71875 -2.875 L 0.71875 0 L 12.25 0 C 13.84375 0 15.140625 -1.296875 15.140625 -2.875 L 15.140625 -5.765625 C 15.140625 -7.34375 13.84375 -8.640625 12.25 -8.640625 L 3.609375 -8.640625 L 3.609375 -11.53125 L 15.140625 -11.53125 Z M 15.140625 -14.40625 "/></g></g></g><g fill="#ffffff" fill-opacity="1"><g transform="translate(85.748397, 33.293422)"><g><path d="M 12.25 0 C 13.859375 0 15.140625 -1.3125 15.140625 -2.875 L 15.140625 -11.53125 C 15.140625 -13.109375 13.84375 -14.40625 12.25 -14.40625 L 3.609375 -14.40625 C 2.015625 -14.40625 0.71875 -13.109375 0.71875 -11.53125 L 0.71875 -2.875 C 0.71875 -1.296875 2.015625 0 3.609375 0 Z M 3.609375 -11.53125 L 12.25 -11.53125 L 12.25 -2.875 L 3.609375 -2.875 Z M 3.609375 -11.53125 "/></g></g></g><g clip-path="url(#5d720f99ea)"><g clip-path="url(#4ff8aaa12d)"><g clip-path="url(#d7569be062)"><path fill="#359279" d="M 6.277344 19.757812 C 6.09375 19.699219 5.910156 19.644531 5.730469 19.589844 L 5.507812 19.527344 L 5.496094 19.527344 L 5.472656 19.519531 L 5.40625 19.5 L 5.328125 19.480469 L 5.277344 19.464844 L 5.261719 19.460938 C 3.710938 19.050781 3.183594 19.117188 3.355469 19.382812 C 3.179688 19.570312 3.707031 19.960938 5.363281 20.417969 L 5.449219 20.445312 C 5.628906 20.503906 6.261719 20.703125 6.519531 20.777344 L 6.878906 20.871094 C 7.742188 21.164062 8.605469 21.511719 9.449219 21.90625 C 10.75 22.515625 12 23.230469 13.121094 24.011719 L 17.617188 27.207031 C 17.75 27.3125 17.941406 27.285156 18.042969 27.152344 C 18.144531 27.019531 18.117188 26.828125 17.984375 26.726562 L 13.539062 23.421875 C 12.796875 22.882812 12 22.375 11.167969 21.902344 C 11.519531 21.960938 11.871094 22.011719 12.226562 22.046875 C 13.167969 22.132812 14.097656 22.097656 14.953125 21.84375 C 15.542969 21.667969 15.972656 21.347656 16.25 20.929688 C 16.519531 20.519531 16.644531 20.003906 16.605469 19.398438 C 16.59375 19.234375 16.492188 18.964844 16.375 18.710938 C 16.613281 18.835938 16.859375 19 17.105469 19.132812 C 17.652344 19.421875 18.195312 19.605469 18.667969 19.523438 C 19.15625 19.4375 19.648438 19.101562 19.980469 18.183594 C 20.382812 17.066406 20.28125 15.6875 19.925781 14.285156 C 19.753906 13.601562 19.519531 12.90625 19.265625 12.238281 C 19.546875 12.652344 19.832031 13.0625 20.140625 13.453125 C 20.542969 13.972656 20.976562 14.460938 21.457031 14.894531 C 21.777344 15.179688 22.367188 15.617188 22.925781 15.773438 C 23.308594 15.882812 23.683594 15.867188 24.007812 15.71875 C 24.578125 15.460938 24.917969 15.039062 25.113281 14.53125 C 25.28125 14.089844 25.3125 13.5625 25.3125 13.046875 C 25.589844 13.191406 25.871094 13.296875 26.144531 13.296875 C 26.4375 13.292969 26.738281 13.203125 27.035156 12.957031 C 27.636719 12.453125 28.003906 11.746094 28.199219 10.949219 C 28.449219 9.945312 28.425781 8.804688 28.390625 7.925781 C 28.386719 7.777344 28.378906 7.632812 28.367188 7.484375 C 28.636719 8.089844 28.914062 8.695312 29.199219 9.292969 C 29.832031 10.628906 30.496094 11.945312 31.195312 13.242188 C 31.3125 13.460938 32.007812 14.644531 32.414062 15.425781 C 32.183594 15.457031 31.9375 15.488281 31.84375 15.507812 C 31.371094 15.59375 30.902344 15.710938 30.441406 15.851562 C 29.765625 16.054688 29.101562 16.296875 28.445312 16.542969 C 26.394531 17.3125 23.925781 18.472656 21.898438 20.027344 C 20.488281 21.105469 19.292969 22.375 18.578125 23.824219 C 17.640625 25.730469 18.046875 27.007812 19.003906 27.601562 C 19.851562 28.128906 21.261719 28.128906 22.785156 27.421875 C 24.148438 26.789062 25.441406 25.894531 26.660156 24.867188 C 28.433594 23.371094 30.042969 21.59375 31.460938 19.960938 C 31.578125 19.824219 31.566406 19.621094 31.433594 19.5 C 31.296875 19.382812 31.09375 19.394531 30.976562 19.53125 C 29.546875 21.109375 27.929688 22.824219 26.160156 24.261719 C 24.980469 25.21875 23.734375 26.050781 22.425781 26.628906 C 21.238281 27.15625 20.152344 27.230469 19.503906 26.8125 C 18.871094 26.402344 18.820312 25.535156 19.46875 24.273438 C 20.140625 22.972656 21.253906 21.851562 22.550781 20.894531 C 24.511719 19.445312 26.890625 18.375 28.859375 17.671875 C 29.492188 17.445312 30.136719 17.222656 30.785156 17.035156 C 31.207031 16.917969 31.632812 16.816406 32.066406 16.742188 C 32.277344 16.703125 32.851562 16.695312 33.207031 16.601562 C 33.464844 16.535156 33.652344 16.414062 33.761719 16.296875 C 33.847656 16.203125 33.949219 16.039062 33.925781 15.78125 C 33.917969 15.695312 33.875 15.523438 33.773438 15.296875 C 33.460938 14.582031 32.5 12.894531 32.359375 12.625 C 31.6875 11.339844 31.050781 10.03125 30.445312 8.710938 C 29.835938 7.390625 29.257812 6.054688 28.710938 4.710938 C 28.542969 4.308594 28.203125 2.988281 27.835938 2.238281 C 27.613281 1.78125 27.320312 1.492188 27.097656 1.390625 C 26.84375 1.277344 26.652344 1.316406 26.519531 1.359375 C 26.335938 1.421875 26.191406 1.542969 26.097656 1.722656 C 26.039062 1.832031 25.988281 2 26.015625 2.222656 C 26.035156 2.363281 26.160156 2.652344 26.1875 2.796875 L 26.40625 4.089844 C 26.535156 4.875 26.679688 5.660156 26.777344 6.445312 C 26.84375 6.953125 26.894531 7.460938 26.910156 7.976562 C 26.9375 8.734375 26.96875 9.722656 26.75 10.589844 C 26.636719 11.054688 26.449219 11.488281 26.105469 11.789062 C 26.007812 11.734375 25.714844 11.574219 25.550781 11.472656 C 25.410156 11.390625 25.183594 11.132812 25.050781 11.054688 C 24.84375 10.929688 24.652344 10.914062 24.519531 10.929688 C 24.210938 10.96875 23.859375 11.109375 23.824219 11.6875 C 23.792969 12.261719 23.9375 13.085938 23.800781 13.773438 C 23.75 14.027344 23.660156 14.265625 23.398438 14.382812 C 23.355469 14.402344 23.308594 14.359375 23.253906 14.339844 C 23.152344 14.304688 23.050781 14.253906 22.953125 14.195312 C 22.742188 14.070312 22.554688 13.921875 22.425781 13.808594 C 21.863281 13.308594 21.371094 12.71875 20.914062 12.101562 C 20.191406 11.117188 19.546875 10.050781 18.855469 9.089844 L 17.484375 7.261719 C 17.308594 7.035156 16.933594 6.445312 16.800781 6.359375 C 16.519531 6.171875 16.269531 6.21875 16.09375 6.304688 C 15.957031 6.375 15.671875 6.539062 15.695312 7.015625 C 15.707031 7.304688 15.804688 7.652344 15.957031 8.011719 C 16.207031 8.597656 16.605469 9.234375 16.78125 9.664062 C 17.300781 10.949219 18.21875 12.796875 18.703125 14.605469 C 19.007812 15.746094 19.15625 16.863281 18.839844 17.78125 C 18.683594 18.234375 18.515625 18.398438 18.253906 18.339844 C 17.832031 18.242188 17.375 17.933594 16.921875 17.71875 C 16.457031 17.492188 15.996094 17.351562 15.582031 17.402344 C 15.253906 17.441406 15.085938 17.605469 14.996094 17.792969 C 14.925781 17.9375 14.890625 18.128906 14.953125 18.355469 C 15.007812 18.550781 15.160156 18.820312 15.3125 19.085938 C 15.390625 19.230469 15.488281 19.363281 15.5 19.476562 C 15.527344 19.816406 15.480469 20.109375 15.335938 20.335938 C 15.191406 20.566406 14.957031 20.726562 14.640625 20.824219 C 13.914062 21.054688 13.117188 21.089844 12.308594 21.03125 C 11.039062 20.933594 9.742188 20.609375 8.617188 20.359375 L 6.765625 19.894531 C 6.652344 19.863281 6.464844 19.8125 6.277344 19.757812 Z M 6.277344 19.757812 " fill-opacity="1" fill-rule="evenodd"/></g></g></g></svg>