<svg xmlns="http://www.w3.org/2000/svg" xmlns:xlink="http://www.w3.org/1999/xlink" width="655" zoomAndPan="magnify" viewBox="0 0 491.25 599.999999" height="800" preserveAspectRatio="xMidYMid meet" version="1.0"><defs><clipPath id="3fb51c3879"><path d="M 0 0.457031 L 490.5 0.457031 L 490.5 599.542969 L 0 599.542969 Z M 0 0.457031 " clip-rule="nonzero"/></clipPath><clipPath id="c131ea7685"><path d="M 76 132 L 402 132 L 402 416 L 76 416 Z M 76 132 " clip-rule="nonzero"/></clipPath><clipPath id="56194e96b6"><path d="M 49.050781 283.089844 L 322.828125 119.09375 L 441.371094 316.988281 L 167.59375 480.984375 Z M 49.050781 283.089844 " clip-rule="nonzero"/></clipPath><clipPath id="fd1090eeec"><path d="M 49.050781 283.089844 L 322.828125 119.09375 L 441.371094 316.988281 L 167.59375 480.984375 Z M 49.050781 283.089844 " clip-rule="nonzero"/></clipPath><clipPath id="ffece2c3bc"><path d="M 76 132 L 402 132 L 402 416 L 76 416 Z M 76 132 " clip-rule="nonzero"/></clipPath><clipPath id="6141ce9d99"><path d="M 49.050781 283.089844 L 322.832031 119.089844 L 410.179688 264.910156 L 136.398438 428.90625 Z M 49.050781 283.089844 " clip-rule="nonzero"/></clipPath><clipPath id="ddd3fa1f53"><path d="M 49.050781 283.089844 L 322.832031 119.089844 L 441.375 316.984375 L 167.59375 480.984375 Z M 49.050781 283.089844 " clip-rule="nonzero"/></clipPath></defs><g clip-path="url(#3fb51c3879)"><path fill="#ffffff" d="M 0 0.457031 L 490.5 0.457031 L 490.5 599.542969 L 0 599.542969 Z M 0 0.457031 " fill-opacity="1" fill-rule="nonzero"/><path fill="#0f0f12" d="M 0 0.457031 L 490.5 0.457031 L 490.5 599.542969 L 0 599.542969 Z M 0 0.457031 " fill-opacity="1" fill-rule="nonzero"/></g><g clip-path="url(#c131ea7685)"><g clip-path="url(#56194e96b6)"><g clip-path="url(#fd1090eeec)"><path fill="#359279" d="M 107.917969 328.421875 C 105.972656 327.800781 104.03125 327.214844 102.097656 326.660156 L 99.753906 326.003906 L 99.636719 325.96875 L 99.390625 325.902344 L 98.6875 325.707031 L 97.855469 325.484375 L 97.316406 325.339844 L 97.121094 325.289062 C 80.675781 320.941406 75.082031 321.636719 76.929688 324.460938 C 75.050781 326.457031 80.652344 330.578125 98.226562 335.410156 L 99.125 335.71875 C 101.023438 336.347656 107.738281 338.4375 110.484375 339.222656 L 114.277344 340.246094 C 123.445312 343.347656 132.613281 347.046875 141.554688 351.226562 C 155.339844 357.667969 168.589844 365.234375 180.46875 373.523438 L 228.148438 407.445312 C 229.558594 408.527344 231.582031 408.253906 232.667969 406.835938 C 233.75 405.425781 233.480469 403.402344 232.0625 402.324219 L 184.90625 367.300781 C 177.058594 361.582031 168.597656 356.164062 159.769531 351.167969 C 163.492188 351.808594 167.246094 352.335938 170.976562 352.683594 C 180.980469 353.613281 190.851562 353.226562 199.894531 350.550781 C 206.183594 348.6875 210.714844 345.292969 213.648438 340.835938 C 216.5 336.503906 217.835938 331.042969 217.421875 324.609375 C 217.308594 322.871094 216.214844 320.027344 214.988281 317.34375 C 217.53125 318.652344 220.128906 320.394531 222.75 321.78125 C 228.527344 324.84375 234.300781 326.792969 239.292969 325.929688 C 244.496094 325.023438 249.683594 321.480469 253.210938 311.75 C 257.507812 299.867188 256.414062 285.269531 252.648438 270.402344 C 250.804688 263.132812 248.328125 255.785156 245.664062 248.699219 C 248.621094 253.097656 251.671875 257.429688 254.90625 261.574219 C 259.191406 267.074219 263.796875 272.238281 268.882812 276.832031 C 272.277344 279.890625 278.554688 284.507812 284.445312 286.164062 C 288.535156 287.316406 292.511719 287.160156 295.9375 285.605469 C 301.96875 282.875 305.582031 278.394531 307.65625 272.980469 C 309.445312 268.320312 309.785156 262.71875 309.765625 257.273438 C 312.714844 258.792969 315.695312 259.914062 318.597656 259.894531 C 321.707031 259.871094 324.886719 258.929688 328.050781 256.296875 C 334.410156 250.980469 338.292969 243.445312 340.382812 235.011719 C 343.023438 224.359375 342.765625 212.257812 342.414062 202.929688 C 342.351562 201.375 342.269531 199.832031 342.164062 198.28125 C 345.035156 204.699219 347.976562 211.09375 350.988281 217.445312 C 357.691406 231.601562 364.75 245.582031 372.140625 259.335938 C 373.382812 261.644531 380.757812 274.183594 385.074219 282.492188 C 382.621094 282.800781 380.046875 283.148438 379.050781 283.339844 C 374.023438 284.273438 369.058594 285.527344 364.148438 286.996094 C 356.992188 289.140625 349.949219 291.71875 342.972656 294.335938 C 321.257812 302.492188 295.042969 314.800781 273.542969 331.28125 C 258.59375 342.734375 245.917969 356.191406 238.347656 371.5625 C 228.417969 391.75 232.707031 405.316406 242.851562 411.605469 C 251.847656 417.191406 266.808594 417.207031 282.988281 409.699219 C 297.40625 403.003906 311.144531 393.519531 324.070312 382.609375 C 342.851562 366.742188 359.917969 347.894531 374.964844 330.566406 C 376.222656 329.144531 376.09375 326.972656 374.671875 325.710938 C 373.253906 324.453125 371.082031 324.589844 369.824219 326.007812 C 354.679688 342.746094 337.519531 360.9375 318.746094 376.179688 C 306.242188 386.332031 293.023438 395.164062 279.171875 401.289062 C 266.554688 406.871094 255.035156 407.675781 248.152344 403.230469 C 241.464844 398.902344 240.933594 389.683594 247.816406 376.328125 C 254.925781 362.523438 266.75 350.644531 280.472656 340.488281 C 301.277344 325.101562 326.503906 313.777344 347.367188 306.320312 C 354.105469 303.910156 360.910156 301.53125 367.816406 299.574219 C 372.289062 298.308594 376.816406 297.222656 381.402344 296.433594 C 383.613281 296.050781 389.722656 295.9375 393.488281 294.957031 C 396.226562 294.25 398.222656 292.960938 399.355469 291.71875 C 400.265625 290.722656 401.351562 289 401.121094 286.246094 C 401.042969 285.347656 400.5625 283.511719 399.507812 281.121094 C 396.164062 273.523438 385.976562 255.644531 384.496094 252.800781 C 377.394531 239.160156 370.640625 225.289062 364.191406 211.28125 C 357.746094 197.265625 351.601562 183.109375 345.796875 168.859375 C 344.042969 164.574219 340.425781 150.578125 336.527344 142.628906 C 334.15625 137.78125 331.078125 134.738281 328.691406 133.664062 C 326.023438 132.464844 323.96875 132.859375 322.570312 133.332031 C 320.613281 133.992188 319.109375 135.265625 318.09375 137.171875 C 317.480469 138.320312 316.921875 140.113281 317.226562 142.464844 C 317.429688 143.960938 318.777344 147.023438 319.035156 148.582031 L 321.363281 162.273438 C 322.746094 170.617188 324.246094 178.90625 325.324219 187.253906 C 326.015625 192.632812 326.535156 198.035156 326.722656 203.5 C 327 211.546875 327.324219 222 325.027344 231.199219 C 323.792969 236.140625 321.835938 240.738281 318.195312 243.925781 C 317.160156 243.355469 314.027344 241.625 312.277344 240.582031 C 310.792969 239.703125 308.398438 236.949219 307 236.113281 C 304.804688 234.8125 302.777344 234.648438 301.34375 234.820312 C 298.085938 235.207031 294.34375 236.726562 294.003906 242.84375 C 293.667969 248.929688 295.183594 257.675781 293.75 264.949219 C 293.21875 267.65625 292.238281 270.175781 289.488281 271.433594 C 289.011719 271.648438 288.515625 271.175781 287.949219 270.96875 C 286.863281 270.589844 285.785156 270.046875 284.753906 269.433594 C 282.53125 268.117188 280.523438 266.53125 279.175781 265.339844 C 273.199219 260.03125 267.992188 253.796875 263.144531 247.21875 C 255.449219 236.78125 248.628906 225.488281 241.273438 215.296875 L 226.765625 195.894531 C 224.875 193.496094 220.898438 187.238281 219.5 186.324219 C 216.507812 184.359375 213.867188 184.847656 211.996094 185.769531 C 210.550781 186.492188 207.539062 188.242188 207.773438 193.292969 C 207.917969 196.378906 208.945312 200.058594 210.574219 203.871094 C 213.203125 210.058594 217.445312 216.847656 219.285156 221.390625 C 224.804688 235.015625 234.535156 254.621094 239.679688 273.785156 C 242.921875 285.867188 244.472656 297.734375 241.113281 307.476562 C 239.453125 312.285156 237.699219 314.015625 234.90625 313.382812 C 230.449219 312.371094 225.585938 309.09375 220.792969 306.789062 C 215.863281 304.40625 210.976562 302.917969 206.574219 303.445312 C 203.085938 303.863281 201.320312 305.617188 200.355469 307.578125 C 199.605469 309.109375 199.25 311.148438 199.921875 313.578125 C 200.484375 315.617188 202.089844 318.46875 203.703125 321.324219 C 204.558594 322.824219 205.589844 324.261719 205.695312 325.464844 C 205.984375 329.050781 205.511719 332.136719 203.96875 334.578125 C 202.441406 336.992188 199.9375 338.699219 196.59375 339.757812 C 188.898438 342.1875 180.449219 342.5625 171.875 341.917969 C 158.410156 340.917969 144.648438 337.441406 132.703125 334.8125 L 113.0625 329.867188 C 111.867188 329.554688 109.890625 328.992188 107.917969 328.421875 Z M 107.917969 328.421875 " fill-opacity="1" fill-rule="evenodd"/></g></g></g><g clip-path="url(#ffece2c3bc)"><g clip-path="url(#6141ce9d99)"><g clip-path="url(#ddd3fa1f53)"><path fill="#359279" d="M 107.917969 328.421875 C 105.976562 327.800781 104.03125 327.214844 102.097656 326.660156 L 99.753906 326.003906 L 99.640625 325.96875 L 99.394531 325.902344 L 98.6875 325.707031 L 97.855469 325.484375 L 97.316406 325.339844 L 97.121094 325.289062 C 80.675781 320.941406 75.082031 321.636719 76.933594 324.460938 C 75.054688 326.457031 80.652344 330.578125 98.230469 335.40625 L 99.128906 335.71875 C 101.027344 336.347656 107.742188 338.4375 110.484375 339.21875 L 114.277344 340.246094 C 123.445312 343.347656 132.613281 347.046875 141.554688 351.226562 C 155.339844 357.667969 168.59375 365.234375 180.472656 373.523438 L 228.148438 407.441406 C 229.558594 408.523438 231.585938 408.253906 232.667969 406.835938 C 233.75 405.425781 233.480469 403.402344 232.066406 402.320312 L 184.910156 367.296875 C 177.0625 361.582031 168.597656 356.164062 159.769531 351.167969 C 163.492188 351.808594 167.246094 352.335938 170.976562 352.683594 C 180.984375 353.613281 190.851562 353.226562 199.898438 350.550781 C 206.183594 348.6875 210.714844 345.292969 213.652344 340.835938 C 216.503906 336.503906 217.839844 331.042969 217.425781 324.609375 C 217.308594 322.871094 216.21875 320.027344 214.992188 317.34375 C 217.535156 318.652344 220.132812 320.394531 222.753906 321.78125 C 228.53125 324.84375 234.304688 326.792969 239.292969 325.929688 C 244.5 325.023438 249.6875 321.480469 253.210938 311.75 C 257.511719 299.867188 256.417969 285.269531 252.648438 270.402344 C 250.808594 263.132812 248.332031 255.785156 245.667969 248.699219 C 248.625 253.09375 251.671875 257.429688 254.90625 261.574219 C 259.195312 267.074219 263.800781 272.234375 268.882812 276.832031 C 272.277344 279.890625 278.554688 284.507812 284.449219 286.164062 C 288.535156 287.3125 292.511719 287.160156 295.941406 285.605469 C 301.972656 282.875 305.582031 278.394531 307.660156 272.980469 C 309.449219 268.320312 309.789062 262.714844 309.769531 257.273438 C 312.714844 258.789062 315.695312 259.914062 318.601562 259.894531 C 321.710938 259.871094 324.886719 258.925781 328.050781 256.296875 C 334.410156 250.980469 338.292969 243.445312 340.382812 235.007812 C 343.027344 224.359375 342.769531 212.253906 342.414062 202.929688 C 342.355469 201.375 342.269531 199.832031 342.167969 198.28125 C 345.035156 204.699219 347.980469 211.09375 350.992188 217.445312 C 357.695312 231.601562 364.753906 245.582031 372.144531 259.335938 C 373.382812 261.644531 380.761719 274.183594 385.078125 282.488281 C 382.625 282.800781 380.050781 283.148438 379.054688 283.339844 C 374.027344 284.273438 369.058594 285.527344 364.152344 286.992188 C 356.996094 289.140625 349.953125 291.71875 342.972656 294.335938 C 321.261719 302.492188 295.046875 314.800781 273.546875 331.28125 C 258.597656 342.730469 245.917969 356.191406 238.351562 371.5625 C 228.421875 391.75 232.710938 405.3125 242.851562 411.605469 C 251.847656 417.1875 266.8125 417.207031 282.988281 409.699219 C 297.410156 403 311.144531 393.519531 324.070312 382.605469 C 342.855469 366.742188 359.921875 347.894531 374.964844 330.566406 C 376.222656 329.144531 376.09375 326.96875 374.675781 325.710938 C 373.253906 324.453125 371.085938 324.589844 369.828125 326.007812 C 354.683594 342.746094 337.523438 360.9375 318.746094 376.179688 C 306.246094 386.332031 293.023438 395.164062 279.171875 401.289062 C 266.558594 406.871094 255.039062 407.675781 248.15625 403.226562 C 241.464844 398.902344 240.9375 389.683594 247.816406 376.324219 C 254.925781 362.519531 266.75 350.640625 280.472656 340.488281 C 301.277344 325.101562 326.507812 313.777344 347.371094 306.320312 C 354.109375 303.910156 360.914062 301.53125 367.820312 299.574219 C 372.292969 298.308594 376.816406 297.21875 381.402344 296.433594 C 383.617188 296.050781 389.722656 295.933594 393.488281 294.957031 C 396.230469 294.25 398.222656 292.960938 399.359375 291.71875 C 400.265625 290.722656 401.351562 289 401.121094 286.246094 C 401.042969 285.347656 400.5625 283.511719 399.511719 281.121094 C 396.167969 273.523438 385.980469 255.644531 384.496094 252.800781 C 377.394531 239.160156 370.640625 225.289062 364.191406 211.28125 C 357.746094 197.265625 351.605469 183.109375 345.796875 168.859375 C 344.046875 164.574219 340.425781 150.578125 336.53125 142.628906 C 334.15625 137.78125 331.082031 134.738281 328.695312 133.664062 C 326.023438 132.464844 323.972656 132.859375 322.574219 133.332031 C 320.613281 133.992188 319.109375 135.265625 318.097656 137.171875 C 317.480469 138.316406 316.921875 140.113281 317.230469 142.464844 C 317.429688 143.960938 318.78125 147.023438 319.039062 148.578125 L 321.367188 162.273438 C 322.75 170.617188 324.25 178.90625 325.324219 187.25 C 326.019531 192.632812 326.539062 198.035156 326.726562 203.496094 C 327.003906 211.542969 327.324219 221.996094 325.027344 231.199219 C 323.792969 236.140625 321.839844 240.734375 318.199219 243.921875 C 317.160156 243.355469 314.03125 241.625 312.28125 240.578125 C 310.792969 239.703125 308.402344 236.949219 307.003906 236.113281 C 304.804688 234.8125 302.78125 234.648438 301.34375 234.816406 C 298.089844 235.207031 294.347656 236.726562 294.007812 242.84375 C 293.671875 248.929688 295.1875 257.675781 293.753906 264.949219 C 293.21875 267.65625 292.238281 270.175781 289.488281 271.433594 C 289.015625 271.648438 288.519531 271.175781 287.949219 270.96875 C 286.867188 270.589844 285.789062 270.046875 284.753906 269.433594 C 282.53125 268.117188 280.527344 266.53125 279.179688 265.339844 C 273.203125 260.03125 267.992188 253.796875 263.148438 247.21875 C 255.453125 236.78125 248.632812 225.488281 241.277344 215.296875 L 226.765625 195.894531 C 224.878906 193.496094 220.898438 187.238281 219.503906 186.324219 C 216.511719 184.355469 213.871094 184.84375 211.996094 185.769531 C 210.550781 186.492188 207.539062 188.242188 207.773438 193.292969 C 207.917969 196.378906 208.949219 200.058594 210.574219 203.871094 C 213.203125 210.058594 217.445312 216.847656 219.285156 221.390625 C 224.808594 235.015625 234.539062 254.621094 239.683594 273.785156 C 242.925781 285.867188 244.476562 297.734375 241.117188 307.476562 C 239.453125 312.285156 237.699219 314.015625 234.910156 313.382812 C 230.453125 312.371094 225.585938 309.09375 220.796875 306.789062 C 215.867188 304.40625 210.980469 302.917969 206.578125 303.445312 C 203.085938 303.863281 201.324219 305.617188 200.355469 307.578125 C 199.609375 309.109375 199.253906 311.148438 199.921875 313.574219 C 200.488281 315.617188 202.089844 318.46875 203.707031 321.320312 C 204.558594 322.824219 205.59375 324.257812 205.695312 325.464844 C 205.988281 329.046875 205.515625 332.136719 203.972656 334.578125 C 202.445312 336.992188 199.9375 338.695312 196.59375 339.757812 C 188.902344 342.1875 180.453125 342.5625 171.878906 341.917969 C 158.410156 340.914062 144.652344 337.441406 132.707031 334.8125 L 113.0625 329.867188 C 111.867188 329.550781 109.890625 328.992188 107.917969 328.421875 Z M 107.917969 328.421875 " fill-opacity="1" fill-rule="evenodd"/></g></g></g></svg>