<svg xmlns="http://www.w3.org/2000/svg" xmlns:xlink="http://www.w3.org/1999/xlink" width="655" zoomAndPan="magnify" viewBox="0 0 491.25 599.999999" height="800" preserveAspectRatio="xMidYMid meet" version="1.0"><defs><g/><clipPath id="cae167aba7"><path d="M 0 0.457031 L 490.5 0.457031 L 490.5 599.542969 L 0 599.542969 Z M 0 0.457031 " clip-rule="nonzero"/></clipPath><clipPath id="4b4c503462"><path d="M 11 193 L 153 193 L 153 316 L 11 316 Z M 11 193 " clip-rule="nonzero"/></clipPath><clipPath id="18ebee34d9"><path d="M 0 258.007812 L 118.203125 187.199219 L 169.386719 272.640625 L 51.179688 343.449219 Z M 0 258.007812 " clip-rule="nonzero"/></clipPath><clipPath id="1f46e19efc"><path d="M 0 258.007812 L 118.203125 187.199219 L 169.386719 272.640625 L 51.179688 343.449219 Z M 0 258.007812 " clip-rule="nonzero"/></clipPath><clipPath id="8d9ca07e70"><path d="M 11 193 L 153 193 L 153 316 L 11 316 Z M 11 193 " clip-rule="nonzero"/></clipPath><clipPath id="8b2dc82c7c"><path d="M 0 258.007812 L 118.207031 187.199219 L 155.917969 250.15625 L 37.714844 320.964844 Z M 0 258.007812 " clip-rule="nonzero"/></clipPath><clipPath id="4dda10b3d5"><path d="M 0 258.007812 L 118.207031 187.199219 L 169.386719 272.640625 L 51.183594 343.449219 Z M 0 258.007812 " clip-rule="nonzero"/></clipPath><clipPath id="459ed8fe2e"><path d="M 381.75 358.644531 L 446 358.644531 L 446 412.5625 L 381.75 412.5625 Z M 381.75 358.644531 " clip-rule="nonzero"/></clipPath><clipPath id="75b2ff7fec"><path d="M 433 378 L 453.640625 378 L 453.640625 407 L 433 407 Z M 433 378 " clip-rule="nonzero"/></clipPath></defs><g clip-path="url(#cae167aba7)"><path fill="#ffffff" d="M 0 0.457031 L 490.5 0.457031 L 490.5 599.542969 L 0 599.542969 Z M 0 0.457031 " fill-opacity="1" fill-rule="nonzero"/><path fill="#ffffff" d="M 0 0.457031 L 490.5 0.457031 L 490.5 599.542969 L 0 599.542969 Z M 0 0.457031 " fill-opacity="1" fill-rule="nonzero"/><path fill="#0f0f12" d="M 0 0.457031 L 490.5 0.457031 L 490.5 599.542969 L 0 599.542969 Z M 0 0.457031 " fill-opacity="1" fill-rule="nonzero"/></g><g clip-path="url(#4b4c503462)"><g clip-path="url(#18ebee34d9)"><g clip-path="url(#1f46e19efc)"><path fill="#359279" d="M 25.414062 277.578125 C 24.578125 277.3125 23.738281 277.058594 22.902344 276.820312 L 21.890625 276.535156 L 21.839844 276.519531 L 21.734375 276.492188 L 21.429688 276.40625 L 21.070312 276.308594 L 20.839844 276.246094 L 20.753906 276.226562 C 13.652344 274.347656 11.238281 274.648438 12.039062 275.867188 C 11.226562 276.730469 13.644531 278.511719 21.230469 280.59375 L 21.621094 280.730469 C 22.441406 281 25.339844 281.902344 26.523438 282.242188 L 28.160156 282.683594 C 32.121094 284.023438 36.078125 285.621094 39.9375 287.425781 C 45.890625 290.207031 51.613281 293.472656 56.742188 297.050781 L 77.324219 311.695312 C 77.933594 312.164062 78.808594 312.046875 79.277344 311.433594 C 79.746094 310.828125 79.628906 309.953125 79.015625 309.484375 L 58.65625 294.363281 C 55.269531 291.894531 51.613281 289.554688 47.804688 287.398438 C 49.410156 287.675781 51.03125 287.902344 52.640625 288.054688 C 56.960938 288.453125 61.222656 288.289062 65.128906 287.132812 C 67.84375 286.328125 69.796875 284.863281 71.066406 282.9375 C 72.296875 281.070312 72.875 278.710938 72.695312 275.933594 C 72.644531 275.179688 72.175781 273.953125 71.644531 272.796875 C 72.742188 273.359375 73.863281 274.113281 74.996094 274.710938 C 77.488281 276.035156 79.984375 276.875 82.136719 276.503906 C 84.386719 276.109375 86.625 274.582031 88.148438 270.378906 C 90.003906 265.25 89.53125 258.949219 87.902344 252.527344 C 87.109375 249.390625 86.039062 246.21875 84.890625 243.160156 C 86.164062 245.058594 87.480469 246.929688 88.878906 248.714844 C 90.730469 251.09375 92.71875 253.320312 94.914062 255.304688 C 96.378906 256.625 99.089844 258.621094 101.632812 259.335938 C 103.398438 259.832031 105.113281 259.765625 106.59375 259.09375 C 109.199219 257.914062 110.757812 255.980469 111.65625 253.640625 C 112.425781 251.628906 112.574219 249.210938 112.566406 246.859375 C 113.835938 247.515625 115.125 248 116.378906 247.992188 C 117.722656 247.980469 119.09375 247.574219 120.457031 246.4375 C 123.203125 244.144531 124.882812 240.890625 125.785156 237.246094 C 126.925781 232.648438 126.8125 227.425781 126.660156 223.398438 C 126.632812 222.726562 126.597656 222.058594 126.554688 221.390625 C 127.792969 224.160156 129.0625 226.921875 130.363281 229.664062 C 133.257812 235.777344 136.304688 241.8125 139.496094 247.75 C 140.03125 248.746094 143.214844 254.160156 145.082031 257.746094 C 144.019531 257.882812 142.910156 258.03125 142.480469 258.113281 C 140.308594 258.519531 138.164062 259.058594 136.046875 259.691406 C 132.953125 260.621094 129.914062 261.730469 126.902344 262.863281 C 117.527344 266.382812 106.207031 271.699219 96.925781 278.8125 C 90.472656 283.757812 85 289.570312 81.730469 296.207031 C 77.441406 304.921875 79.292969 310.777344 83.671875 313.492188 C 87.558594 315.90625 94.019531 315.914062 101.003906 312.671875 C 107.230469 309.777344 113.160156 305.6875 118.742188 300.972656 C 126.851562 294.125 134.21875 285.984375 140.714844 278.503906 C 141.257812 277.890625 141.203125 276.953125 140.589844 276.410156 C 139.976562 275.867188 139.039062 275.925781 138.496094 276.535156 C 131.957031 283.765625 124.546875 291.617188 116.441406 298.199219 C 111.042969 302.582031 105.335938 306.394531 99.355469 309.039062 C 93.910156 311.449219 88.933594 311.796875 85.964844 309.875 C 83.074219 308.007812 82.847656 304.027344 85.816406 298.261719 C 88.886719 292.300781 93.992188 287.171875 99.917969 282.789062 C 108.898438 276.144531 119.792969 271.257812 128.800781 268.035156 C 131.710938 266.996094 134.648438 265.96875 137.628906 265.125 C 139.558594 264.578125 141.515625 264.109375 143.492188 263.765625 C 144.449219 263.601562 147.085938 263.554688 148.710938 263.128906 C 149.894531 262.824219 150.757812 262.269531 151.246094 261.730469 C 151.636719 261.300781 152.105469 260.558594 152.007812 259.367188 C 151.972656 258.980469 151.765625 258.1875 151.3125 257.15625 C 149.867188 253.878906 145.46875 246.15625 144.828125 244.929688 C 141.761719 239.039062 138.847656 233.050781 136.0625 227.003906 C 133.28125 220.953125 130.628906 214.839844 128.121094 208.6875 C 127.363281 206.835938 125.800781 200.792969 124.121094 197.363281 C 123.09375 195.269531 121.765625 193.957031 120.734375 193.492188 C 119.582031 192.972656 118.699219 193.144531 118.09375 193.347656 C 117.246094 193.632812 116.597656 194.183594 116.160156 195.007812 C 115.894531 195.5 115.652344 196.273438 115.785156 197.292969 C 115.871094 197.9375 116.457031 199.257812 116.566406 199.929688 L 117.574219 205.84375 C 118.167969 209.445312 118.816406 213.023438 119.28125 216.628906 C 119.582031 218.949219 119.804688 221.285156 119.886719 223.640625 C 120.007812 227.117188 120.144531 231.628906 119.152344 235.601562 C 118.621094 237.734375 117.777344 239.71875 116.203125 241.097656 C 115.757812 240.851562 114.40625 240.105469 113.648438 239.652344 C 113.007812 239.273438 111.972656 238.085938 111.371094 237.722656 C 110.421875 237.164062 109.546875 237.089844 108.929688 237.164062 C 107.523438 237.332031 105.90625 237.988281 105.761719 240.628906 C 105.613281 243.257812 106.269531 247.035156 105.652344 250.175781 C 105.417969 251.34375 104.996094 252.429688 103.808594 252.972656 C 103.605469 253.066406 103.390625 252.863281 103.144531 252.773438 C 102.675781 252.609375 102.210938 252.375 101.765625 252.109375 C 100.804688 251.542969 99.941406 250.855469 99.359375 250.34375 C 96.777344 248.050781 94.527344 245.359375 92.4375 242.519531 C 89.113281 238.011719 86.167969 233.136719 82.992188 228.738281 L 76.730469 220.359375 C 75.914062 219.324219 74.195312 216.621094 73.59375 216.226562 C 72.300781 215.378906 71.160156 215.589844 70.351562 215.988281 C 69.726562 216.300781 68.425781 217.054688 68.527344 219.238281 C 68.589844 220.570312 69.035156 222.15625 69.738281 223.804688 C 70.871094 226.476562 72.703125 229.40625 73.5 231.367188 C 75.882812 237.25 80.085938 245.714844 82.304688 253.988281 C 83.707031 259.207031 84.375 264.328125 82.925781 268.535156 C 82.207031 270.613281 81.449219 271.359375 80.246094 271.085938 C 78.320312 270.648438 76.21875 269.234375 74.152344 268.238281 C 72.023438 267.210938 69.914062 266.566406 68.011719 266.796875 C 66.503906 266.976562 65.742188 267.734375 65.324219 268.578125 C 65.003906 269.242188 64.847656 270.121094 65.140625 271.167969 C 65.382812 272.050781 66.074219 273.28125 66.773438 274.515625 C 67.140625 275.164062 67.585938 275.78125 67.632812 276.300781 C 67.757812 277.851562 67.554688 279.183594 66.886719 280.238281 C 66.226562 281.277344 65.144531 282.015625 63.703125 282.472656 C 60.378906 283.523438 56.734375 283.683594 53.03125 283.40625 C 47.214844 282.972656 41.273438 281.472656 36.117188 280.339844 L 27.636719 278.203125 C 27.121094 278.066406 26.269531 277.824219 25.414062 277.578125 Z M 25.414062 277.578125 " fill-opacity="1" fill-rule="evenodd"/></g></g></g><g fill="#ffffff" fill-opacity="1"><g transform="translate(98.955757, 339.429309)"><g><path d="M 56 -13.171875 L 42.828125 -13.171875 L 42.828125 -65.890625 L 29.65625 -65.890625 L 29.65625 -13.171875 L 16.46875 -13.171875 L 16.46875 -65.890625 L 3.296875 -65.890625 L 3.296875 -13.171875 C 3.296875 -5.9375 9.21875 0 16.46875 0 L 56 0 C 63.25 0 69.1875 -5.9375 69.1875 -13.171875 L 69.1875 -65.890625 L 56 -65.890625 Z M 56 -13.171875 "/></g></g></g><g fill="#ffffff" fill-opacity="1"><g transform="translate(171.430925, 339.429309)"><g><path d="M 69.1875 -65.890625 L 16.46875 -65.890625 C 9.21875 -65.890625 3.296875 -59.953125 3.296875 -52.703125 L 3.296875 -13.171875 C 3.296875 -5.9375 9.21875 0 16.46875 0 L 69.1875 0 L 69.1875 -13.171875 L 16.46875 -13.171875 L 16.46875 -26.359375 L 69.1875 -26.359375 L 69.1875 -39.53125 L 16.46875 -39.53125 L 16.46875 -52.703125 L 69.1875 -52.703125 Z M 69.1875 -65.890625 "/></g></g></g><g fill="#ffffff" fill-opacity="1"><g transform="translate(243.906093, 339.429309)"><g><path d="M 69.1875 -52.703125 C 69.1875 -59.875 63.328125 -65.890625 56 -65.890625 L 3.296875 -65.890625 L 3.296875 0 L 56 0 C 63.328125 0 69.1875 -6.015625 69.1875 -13.171875 L 69.1875 -26.359375 C 69.1875 -29.984375 66.21875 -32.9375 62.59375 -32.9375 C 66.21875 -32.9375 69.1875 -35.90625 69.1875 -39.53125 Z M 56 -52.703125 L 56 -39.53125 L 16.46875 -39.53125 L 16.46875 -52.703125 Z M 16.46875 -13.171875 L 16.46875 -26.359375 L 56 -26.359375 L 56 -13.171875 Z M 16.46875 -13.171875 "/></g></g></g><g fill="#ffffff" fill-opacity="1"><g transform="translate(316.381261, 339.429309)"><g><path d="M 69.1875 -65.890625 L 16.46875 -65.890625 C 9.21875 -65.890625 3.296875 -59.953125 3.296875 -52.703125 L 3.296875 -39.53125 C 3.296875 -32.28125 9.21875 -26.359375 16.46875 -26.359375 L 56 -26.359375 L 56 -13.171875 L 3.296875 -13.171875 L 3.296875 0 L 56 0 C 63.25 0 69.1875 -5.9375 69.1875 -13.171875 L 69.1875 -26.359375 C 69.1875 -33.609375 63.25 -39.53125 56 -39.53125 L 16.46875 -39.53125 L 16.46875 -52.703125 L 69.1875 -52.703125 Z M 69.1875 -65.890625 "/></g></g></g><g fill="#ffffff" fill-opacity="1"><g transform="translate(388.856429, 339.429309)"><g><path d="M 56 0 C 63.328125 0 69.1875 -6.015625 69.1875 -13.171875 L 69.1875 -52.703125 C 69.1875 -59.953125 63.25 -65.890625 56 -65.890625 L 16.46875 -65.890625 C 9.21875 -65.890625 3.296875 -59.953125 3.296875 -52.703125 L 3.296875 -13.171875 C 3.296875 -5.9375 9.21875 0 16.46875 0 Z M 16.46875 -52.703125 L 56 -52.703125 L 56 -13.171875 L 16.46875 -13.171875 Z M 16.46875 -52.703125 "/></g></g></g><g clip-path="url(#8d9ca07e70)"><g clip-path="url(#8b2dc82c7c)"><g clip-path="url(#4dda10b3d5)"><path fill="#359279" d="M 25.417969 277.578125 C 24.578125 277.3125 23.738281 277.058594 22.902344 276.816406 L 21.890625 276.535156 L 21.84375 276.519531 L 21.734375 276.492188 L 21.429688 276.40625 L 21.074219 276.308594 L 20.839844 276.246094 L 20.753906 276.226562 C 13.65625 274.347656 11.238281 274.648438 12.039062 275.867188 C 11.226562 276.730469 13.644531 278.511719 21.234375 280.59375 L 21.621094 280.730469 C 22.441406 281 25.339844 281.902344 26.523438 282.242188 L 28.164062 282.683594 C 32.121094 284.023438 36.078125 285.621094 39.941406 287.425781 C 45.890625 290.207031 51.613281 293.472656 56.742188 297.050781 L 77.328125 311.695312 C 77.933594 312.164062 78.808594 312.046875 79.277344 311.433594 C 79.746094 310.824219 79.628906 309.949219 79.019531 309.484375 L 58.65625 294.363281 C 55.269531 291.894531 51.617188 289.554688 47.804688 287.398438 C 49.410156 287.675781 51.03125 287.902344 52.644531 288.054688 C 56.960938 288.453125 61.222656 288.289062 65.128906 287.132812 C 67.84375 286.328125 69.800781 284.863281 71.066406 282.9375 C 72.296875 281.070312 72.875 278.710938 72.695312 275.933594 C 72.648438 275.179688 72.175781 273.953125 71.644531 272.796875 C 72.742188 273.359375 73.863281 274.113281 74.996094 274.710938 C 77.492188 276.035156 79.984375 276.875 82.140625 276.503906 C 84.386719 276.109375 86.625 274.582031 88.148438 270.378906 C 90.003906 265.25 89.53125 258.945312 87.90625 252.527344 C 87.109375 249.390625 86.039062 246.21875 84.890625 243.160156 C 86.167969 245.054688 87.484375 246.925781 88.878906 248.714844 C 90.730469 251.09375 92.71875 253.320312 94.914062 255.304688 C 96.378906 256.625 99.089844 258.617188 101.632812 259.332031 C 103.398438 259.832031 105.117188 259.765625 106.597656 259.09375 C 109.199219 257.914062 110.757812 255.980469 111.65625 253.640625 C 112.429688 251.628906 112.574219 249.210938 112.566406 246.859375 C 113.839844 247.515625 115.125 248 116.378906 247.992188 C 117.722656 247.980469 119.09375 247.574219 120.460938 246.4375 C 123.207031 244.140625 124.882812 240.890625 125.785156 237.246094 C 126.925781 232.648438 126.8125 227.421875 126.660156 223.398438 C 126.636719 222.726562 126.597656 222.058594 126.554688 221.390625 C 127.792969 224.160156 129.0625 226.921875 130.363281 229.664062 C 133.257812 235.777344 136.304688 241.8125 139.496094 247.75 C 140.03125 248.746094 143.21875 254.160156 145.082031 257.746094 C 144.023438 257.882812 142.910156 258.03125 142.480469 258.113281 C 140.308594 258.519531 138.164062 259.058594 136.046875 259.691406 C 132.957031 260.617188 129.914062 261.730469 126.902344 262.863281 C 117.527344 266.382812 106.210938 271.699219 96.925781 278.8125 C 90.472656 283.757812 85 289.570312 81.730469 296.203125 C 77.445312 304.921875 79.296875 310.777344 83.675781 313.492188 C 87.558594 315.902344 94.019531 315.914062 101.003906 312.667969 C 107.230469 309.777344 113.160156 305.683594 118.742188 300.972656 C 126.851562 294.125 134.21875 285.984375 140.714844 278.503906 C 141.257812 277.890625 141.203125 276.953125 140.589844 276.410156 C 139.976562 275.867188 139.039062 275.921875 138.496094 276.535156 C 131.957031 283.761719 124.550781 291.617188 116.441406 298.199219 C 111.046875 302.582031 105.335938 306.394531 99.355469 309.039062 C 93.910156 311.449219 88.9375 311.796875 85.964844 309.875 C 83.078125 308.007812 82.847656 304.027344 85.816406 298.261719 C 88.886719 292.300781 93.992188 287.171875 99.917969 282.789062 C 108.898438 276.144531 119.792969 271.253906 128.800781 268.035156 C 131.710938 266.996094 134.648438 265.96875 137.628906 265.125 C 139.5625 264.578125 141.515625 264.105469 143.496094 263.765625 C 144.449219 263.601562 147.085938 263.550781 148.710938 263.128906 C 149.894531 262.824219 150.757812 262.269531 151.246094 261.730469 C 151.640625 261.300781 152.109375 260.558594 152.007812 259.367188 C 151.976562 258.980469 151.765625 258.1875 151.3125 257.15625 C 149.867188 253.875 145.46875 246.15625 144.832031 244.929688 C 141.765625 239.039062 138.847656 233.050781 136.0625 227.003906 C 133.28125 220.953125 130.628906 214.839844 128.121094 208.6875 C 127.367188 206.835938 125.804688 200.792969 124.121094 197.363281 C 123.09375 195.269531 121.769531 193.953125 120.738281 193.492188 C 119.585938 192.972656 118.699219 193.144531 118.09375 193.347656 C 117.25 193.632812 116.597656 194.183594 116.160156 195.007812 C 115.894531 195.5 115.65625 196.273438 115.789062 197.289062 C 115.875 197.9375 116.457031 199.257812 116.570312 199.929688 L 117.574219 205.84375 C 118.171875 209.445312 118.820312 213.023438 119.28125 216.628906 C 119.582031 218.949219 119.804688 221.285156 119.886719 223.640625 C 120.007812 227.117188 120.148438 231.628906 119.15625 235.601562 C 118.621094 237.734375 117.777344 239.71875 116.207031 241.097656 C 115.757812 240.851562 114.40625 240.101562 113.648438 239.652344 C 113.007812 239.273438 111.976562 238.085938 111.371094 237.722656 C 110.421875 237.164062 109.550781 237.089844 108.929688 237.164062 C 107.523438 237.332031 105.90625 237.988281 105.761719 240.628906 C 105.617188 243.257812 106.269531 247.035156 105.652344 250.171875 C 105.421875 251.34375 104.996094 252.429688 103.8125 252.972656 C 103.605469 253.066406 103.390625 252.863281 103.144531 252.773438 C 102.679688 252.609375 102.210938 252.375 101.765625 252.109375 C 100.808594 251.542969 99.941406 250.855469 99.359375 250.34375 C 96.777344 248.050781 94.527344 245.359375 92.4375 242.519531 C 89.113281 238.011719 86.171875 233.136719 82.992188 228.738281 L 76.730469 220.359375 C 75.914062 219.324219 74.195312 216.621094 73.59375 216.226562 C 72.300781 215.378906 71.160156 215.589844 70.351562 215.988281 C 69.730469 216.300781 68.429688 217.054688 68.53125 219.234375 C 68.59375 220.566406 69.035156 222.15625 69.738281 223.804688 C 70.875 226.476562 72.707031 229.40625 73.5 231.367188 C 75.882812 237.25 80.085938 245.714844 82.304688 253.988281 C 83.707031 259.207031 84.375 264.328125 82.925781 268.535156 C 82.207031 270.609375 81.449219 271.359375 80.246094 271.085938 C 78.320312 270.648438 76.222656 269.234375 74.152344 268.238281 C 72.023438 267.210938 69.914062 266.566406 68.011719 266.792969 C 66.507812 266.976562 65.746094 267.734375 65.328125 268.578125 C 65.003906 269.242188 64.851562 270.121094 65.140625 271.167969 C 65.382812 272.050781 66.078125 273.28125 66.773438 274.511719 C 67.140625 275.164062 67.585938 275.78125 67.632812 276.300781 C 67.757812 277.847656 67.554688 279.183594 66.886719 280.234375 C 66.230469 281.277344 65.148438 282.015625 63.703125 282.472656 C 60.382812 283.519531 56.734375 283.683594 53.03125 283.40625 C 47.214844 282.972656 41.277344 281.472656 36.121094 280.335938 L 27.636719 278.203125 C 27.121094 278.066406 26.269531 277.824219 25.417969 277.578125 Z M 25.417969 277.578125 " fill-opacity="1" fill-rule="evenodd"/></g></g></g><g fill="#359279" fill-opacity="1"><g transform="translate(247.502528, 392.66523)"><g><path d="M 28.828125 -21.96875 C 28.828125 -24.953125 26.390625 -27.46875 23.34375 -27.46875 L 1.375 -27.46875 L 1.375 0 L 23.34375 0 C 26.390625 0 28.828125 -2.5 28.828125 -5.5 L 28.828125 -10.984375 C 28.828125 -12.5 27.59375 -13.734375 26.09375 -13.734375 C 27.59375 -13.734375 28.828125 -14.96875 28.828125 -16.484375 Z M 23.34375 -21.96875 L 23.34375 -16.484375 L 6.859375 -16.484375 L 6.859375 -21.96875 Z M 6.859375 -5.5 L 6.859375 -10.984375 L 23.34375 -10.984375 L 23.34375 -5.5 Z M 6.859375 -5.5 "/></g></g></g><g fill="#359279" fill-opacity="1"><g transform="translate(277.704818, 392.66523)"><g><path d="M 28.828125 0 L 28.828125 -5.5 L 6.859375 -5.5 L 6.859375 -27.46875 L 1.375 -27.46875 L 1.375 -5.5 C 1.375 -2.46875 3.84375 0 6.859375 0 Z M 28.828125 0 "/></g></g></g><g fill="#359279" fill-opacity="1"><g transform="translate(307.907107, 392.66523)"><g><path d="M 23.34375 0 C 26.390625 0 28.828125 -2.5 28.828125 -5.5 L 28.828125 -21.96875 C 28.828125 -24.984375 26.359375 -27.46875 23.34375 -27.46875 L 6.859375 -27.46875 C 3.84375 -27.46875 1.375 -24.984375 1.375 -21.96875 L 1.375 -5.5 C 1.375 -2.46875 3.84375 0 6.859375 0 Z M 6.859375 -21.96875 L 23.34375 -21.96875 L 23.34375 -5.5 L 6.859375 -5.5 Z M 6.859375 -21.96875 "/></g></g></g><g fill="#359279" fill-opacity="1"><g transform="translate(338.109397, 392.66523)"><g><path d="M 28.828125 -27.46875 L 6.859375 -27.46875 C 3.84375 -27.46875 1.375 -24.984375 1.375 -21.96875 L 1.375 -5.5 C 1.375 -2.46875 3.84375 0 6.859375 0 L 23.34375 0 C 26.390625 0 28.828125 -2.5 28.828125 -5.5 L 28.828125 -16.484375 L 12.359375 -16.484375 L 12.359375 -10.984375 L 23.34375 -10.984375 L 23.34375 -5.5 L 6.859375 -5.5 L 6.859375 -21.96875 L 28.828125 -21.96875 Z M 28.828125 -27.46875 "/></g></g></g><g clip-path="url(#459ed8fe2e)"><path fill="#359279" d="M 386.984375 360.421875 L 440.652344 360.421875 C 442.609375 360.421875 444.15625 361.972656 444.15625 363.929688 L 444.15625 368.160156 L 383.480469 368.160156 L 383.480469 363.929688 C 383.480469 361.972656 385.023438 360.421875 386.984375 360.421875 Z M 386.984375 358.710938 C 384.109375 358.710938 381.765625 361.050781 381.765625 363.929688 L 381.765625 407.585938 C 381.765625 410.464844 384.109375 412.808594 386.984375 412.808594 L 440.652344 412.808594 C 443.53125 412.808594 445.871094 410.464844 445.871094 407.585938 L 445.871094 402.25 C 445.871094 401.105469 444.15625 401.105469 444.15625 402.25 L 444.15625 407.585938 C 444.15625 409.546875 442.609375 411.09375 440.652344 411.09375 L 386.984375 411.09375 C 385.023438 411.09375 383.480469 409.546875 383.480469 407.585938 L 383.480469 369.867188 L 444.15625 369.867188 L 444.15625 378.144531 C 444.15625 379.285156 445.871094 379.285156 445.871094 378.144531 L 445.871094 363.929688 C 445.871094 361.050781 443.53125 358.710938 440.652344 358.710938 Z M 386.984375 358.710938 " fill-opacity="1" fill-rule="nonzero"/></g><path fill="#359279" d="M 388.785156 362.3125 C 388.347656 362.363281 388.019531 362.734375 388.027344 363.175781 L 388.027344 365.40625 C 388.019531 365.886719 388.40625 366.277344 388.882812 366.277344 C 389.363281 366.277344 389.746094 365.886719 389.738281 365.40625 L 389.738281 363.175781 C 389.746094 362.65625 389.292969 362.25 388.785156 362.3125 Z M 388.785156 362.3125 " fill-opacity="1" fill-rule="nonzero"/><path fill="#359279" d="M 393.195312 362.3125 C 392.753906 362.363281 392.429688 362.734375 392.433594 363.175781 L 392.433594 365.40625 C 392.429688 365.886719 392.816406 366.277344 393.292969 366.277344 C 393.769531 366.277344 394.15625 365.886719 394.148438 365.40625 L 394.148438 363.175781 C 394.15625 362.65625 393.703125 362.25 393.195312 362.3125 Z M 393.195312 362.3125 " fill-opacity="1" fill-rule="nonzero"/><path fill="#359279" d="M 416.984375 379.191406 C 415.835938 379.191406 415.925781 380.898438 417.070312 380.898438 L 437.75 380.898438 C 438.902344 380.917969 438.902344 379.171875 437.75 379.191406 Z M 416.984375 379.191406 " fill-opacity="1" fill-rule="evenodd"/><path fill="#359279" d="M 416.984375 384.40625 C 415.835938 384.40625 415.925781 386.121094 417.070312 386.121094 C 423.960938 386.121094 437.175781 386.109375 437.75 386.121094 C 438.902344 386.132812 438.902344 384.390625 437.75 384.40625 Z M 416.984375 384.40625 " fill-opacity="1" fill-rule="evenodd"/><path fill="#359279" d="M 416.984375 389.625 C 415.835938 389.636719 415.925781 391.335938 417.070312 391.335938 L 435.597656 391.335938 C 436.75 391.335938 436.75 389.621094 435.597656 389.625 C 429.394531 389.640625 423.175781 389.574219 416.984375 389.625 Z M 416.984375 389.625 " fill-opacity="1" fill-rule="evenodd"/><path fill="#359279" d="M 416.984375 373.96875 C 415.839844 374.027344 415.925781 375.742188 417.070312 375.683594 L 431.851562 375.683594 C 433.015625 375.699219 433.015625 373.957031 431.851562 373.96875 Z M 416.984375 373.96875 " fill-opacity="1" fill-rule="evenodd"/><path fill="#359279" d="M 417.070312 394.839844 C 416.59375 394.835938 416.199219 395.21875 416.199219 395.699219 C 416.199219 396.179688 416.59375 396.5625 417.070312 396.554688 L 431.511719 396.554688 C 431.988281 396.5625 432.382812 396.179688 432.382812 395.699219 C 432.382812 395.21875 431.988281 394.835938 431.511719 394.839844 Z M 417.070312 394.839844 " fill-opacity="1" fill-rule="evenodd"/><path fill="#359279" d="M 395.492188 386.246094 L 402.359375 393.46875 C 403.144531 394.425781 404.511719 393.121094 403.601562 392.292969 L 401.722656 390.308594 L 404.367188 387.574219 L 410.164062 393.59375 L 410.164062 394.839844 L 389.738281 394.839844 L 389.738281 392.296875 Z M 389.738281 375.683594 L 410.164062 375.683594 L 410.164062 391.128906 L 404.980469 385.746094 C 404.515625 385.269531 404.097656 385.382812 403.75 385.746094 L 400.542969 389.070312 L 396.117188 384.40625 C 395.679688 383.945312 395.210938 384.046875 394.871094 384.40625 L 389.738281 389.808594 Z M 388.796875 373.96875 C 388.355469 374.015625 388.027344 374.386719 388.027344 374.828125 L 388.027344 395.699219 C 388.027344 396.171875 388.414062 396.554688 388.882812 396.554688 L 411.023438 396.554688 C 411.496094 396.554688 411.875 396.175781 411.875 395.699219 L 411.875 374.828125 C 411.875 374.351562 411.496094 373.96875 411.023438 373.96875 L 388.882812 373.96875 C 388.855469 373.96875 388.828125 373.96875 388.796875 373.96875 Z M 388.796875 373.96875 " fill-opacity="1" fill-rule="evenodd"/><path fill="#359279" d="M 404.484375 378.894531 C 405.34375 378.894531 406.019531 379.5625 406.019531 380.417969 C 406.019531 381.277344 405.34375 381.949219 404.484375 381.949219 C 403.625 381.949219 402.949219 381.277344 402.949219 380.417969 C 402.949219 379.566406 403.625 378.894531 404.484375 378.894531 Z M 404.484375 377.179688 C 402.699219 377.179688 401.242188 378.636719 401.242188 380.417969 C 401.242188 382.203125 402.699219 383.664062 404.484375 383.664062 C 406.269531 383.664062 407.726562 382.203125 407.726562 380.417969 C 407.726562 378.636719 406.269531 377.179688 404.484375 377.179688 Z M 404.484375 377.179688 " fill-opacity="1" fill-rule="evenodd"/><g clip-path="url(#75b2ff7fec)"><path fill="#359279" d="M 434.734375 400.402344 L 438.890625 403.199219 L 434.734375 404.863281 Z M 444.511719 385.667969 L 448.945312 388.640625 L 440.007812 401.875 L 435.570312 398.898438 Z M 448.925781 380.527344 C 449.542969 380.46875 450.25 380.683594 450.839844 381.074219 C 451.425781 381.46875 451.875 382.042969 452.058594 382.632812 C 452.238281 383.222656 452.195312 383.824219 451.726562 384.519531 L 449.90625 387.226562 L 445.472656 384.246094 L 447.300781 381.542969 C 447.769531 380.847656 448.308594 380.585938 448.925781 380.527344 Z M 448.777344 378.824219 C 447.699219 378.917969 446.609375 379.496094 445.875 380.578125 L 433.167969 399.382812 C 433.074219 399.523438 433.023438 399.695312 433.023438 399.871094 L 433.023438 406.140625 C 433.023438 406.742188 433.636719 407.164062 434.203125 406.933594 L 440.078125 404.558594 C 440.242188 404.496094 440.378906 404.382812 440.472656 404.242188 L 453.15625 385.476562 C 453.886719 384.398438 454.015625 383.167969 453.699219 382.132812 C 453.382812 381.097656 452.664062 380.238281 451.789062 379.648438 C 450.917969 379.0625 449.859375 378.722656 448.777344 378.824219 Z M 448.777344 378.824219 " fill-opacity="1" fill-rule="nonzero"/></g><path fill="#359279" d="M 388.898438 400.0625 C 388.417969 400.054688 388.03125 400.441406 388.03125 400.917969 C 388.03125 401.394531 388.417969 401.78125 388.898438 401.777344 L 428.566406 401.777344 C 429.046875 401.78125 429.4375 401.394531 429.4375 400.917969 C 429.4375 400.441406 429.046875 400.054688 428.566406 400.0625 Z M 388.898438 400.0625 " fill-opacity="1" fill-rule="evenodd"/><path fill="#359279" d="M 388.898438 405.277344 C 388.417969 405.273438 388.03125 405.65625 388.03125 406.136719 C 388.03125 406.617188 388.417969 406.996094 388.898438 406.992188 L 428.566406 406.992188 C 429.046875 406.996094 429.4375 406.617188 429.4375 406.136719 C 429.4375 405.65625 429.046875 405.273438 428.566406 405.277344 Z M 388.898438 405.277344 " fill-opacity="1" fill-rule="evenodd"/></svg>